<?xml version="1.0" encoding="UTF-8" standalone="no"?>
<!-- Created with Inkscape (http://www.inkscape.org/) -->

<svg
   xmlns:dc="http://purl.org/dc/elements/1.1/"
   xmlns:cc="http://creativecommons.org/ns#"
   xmlns:rdf="http://www.w3.org/1999/02/22-rdf-syntax-ns#"
   xmlns:svg="http://www.w3.org/2000/svg"
   xmlns="http://www.w3.org/2000/svg"
   xmlns:sodipodi="http://sodipodi.sourceforge.net/DTD/sodipodi-0.dtd"
   xmlns:inkscape="http://www.inkscape.org/namespaces/inkscape"
   version="1.1"
   id="svg845"
   xml:space="preserve"
   width="880"
   height="880"
   viewBox="0 0 880 880"
   sodipodi:docname="green-dots.svg"
   inkscape:version="0.92.4 (5da689c313, 2019-01-14)"><metadata
     id="metadata851"><rdf:RDF><cc:Work
         rdf:about=""><dc:format>image/svg+xml</dc:format><dc:type
           rdf:resource="http://purl.org/dc/dcmitype/StillImage" /><dc:title></dc:title></cc:Work></rdf:RDF></metadata><defs
     id="defs849"><clipPath
       clipPathUnits="userSpaceOnUse"
       id="clipPath861"><path
         d="M 0,660 H 660 V 0 H 0 Z"
         id="path859"
         inkscape:connector-curvature="0" /></clipPath><radialGradient
       fx="0"
       fy="0"
       cx="0"
       cy="0"
       r="1"
       gradientUnits="userSpaceOnUse"
       gradientTransform="matrix(255.86523,0,0,-255.86523,325.44287,329.74609)"
       spreadMethod="pad"
       id="radialGradient887"><stop
         style="stop-opacity:1;stop-color:#cdea93"
         offset="0"
         id="stop877" /><stop
         style="stop-opacity:1;stop-color:#cdea93"
         offset="0.17396124"
         id="stop879" /><stop
         style="stop-opacity:1;stop-color:#fff200"
         offset="0.5"
         id="stop881" /><stop
         style="stop-opacity:1;stop-color:#6bbf2b"
         offset="0.73786643"
         id="stop883" /><stop
         style="stop-opacity:1;stop-color:#6bbf2b"
         offset="1"
         id="stop885" /></radialGradient></defs><sodipodi:namedview
     pagecolor="#ffffff"
     bordercolor="#666666"
     borderopacity="1"
     objecttolerance="10"
     gridtolerance="10"
     guidetolerance="10"
     inkscape:pageopacity="0"
     inkscape:pageshadow="2"
     inkscape:window-width="1920"
     inkscape:window-height="1018"
     id="namedview847"
     showgrid="false"
     inkscape:zoom="0.77708657"
     inkscape:cx="589.15254"
     inkscape:cy="400.84746"
     inkscape:window-x="-8"
     inkscape:window-y="-8"
     inkscape:window-maximized="1"
     inkscape:current-layer="g853" /><g
     id="g853"
     inkscape:groupmode="layer"
     inkscape:label="abstract-240-publicdomainvectors [Converted]"
     transform="matrix(1.3333333,0,0,-1.3333333,0,880)"><g
       id="g855"><g
         id="g857"
         clip-path="url(#clipPath861)"><path
           d="M 658.741,0 H 388.658 c 0.408,-0.339 0.817,-0.678 1.227,-1.016"
           style="fill:none;stroke:#231f20;stroke-width:0.98000002;stroke-linecap:butt;stroke-linejoin:miter;stroke-miterlimit:4;stroke-dasharray:none;stroke-opacity:1"
           id="path863"
           inkscape:connector-curvature="0" /><g
           id="g865"><g
             id="g867"><g
               id="g873"><g
                 id="g875"><path
                   d="m 574.619,398.934 c 10.537,13.19 8.396,32.431 -4.789,42.974 -13.195,10.541 -32.432,8.395 -42.973,-4.795 -10.543,-13.185 -8.402,-32.421 4.783,-42.968 13.196,-10.537 32.431,-8.396 42.979,4.789 m -83.4,15.596 c -0.885,15.179 -13.911,26.746 -29.073,25.856 -15.174,-0.884 -26.747,-13.911 -25.863,-29.079 0.891,-15.168 13.917,-26.741 29.085,-25.85 15.168,0.89 26.747,13.911 25.851,29.073 m -65.167,-39.784 c -9.726,9.606 -25.412,9.504 -35.025,-0.22 -9.6,-9.725 -9.5,-25.412 0.226,-35.024 9.736,-9.606 25.411,-9.511 35.023,0.22 9.607,9.73 9.512,25.411 -0.224,35.024 m -19.619,-65.861 c -12.294,0.568 -22.731,-8.938 -23.293,-21.231 -0.564,-12.295 8.941,-22.728 21.235,-23.293 12.294,-0.568 22.725,8.936 23.293,21.237 0.569,12.293 -8.941,22.723 -21.235,23.287 m 26.532,-55.865 c -8.569,-7.026 -9.816,-19.665 -2.789,-28.229 7.026,-8.559 19.664,-9.811 28.234,-2.789 8.559,7.025 9.81,19.664 2.788,28.228 -7.025,8.571 -19.67,9.815 -28.233,2.79 m 51.391,-21.383 c -1.499,-9.862 5.28,-19.067 15.134,-20.561 9.861,-1.498 19.068,5.279 20.561,15.141 1.498,9.847 -5.28,19.054 -15.135,20.554 -9.854,1.499 -19.062,-5.275 -20.56,-15.134 m 47.25,16.644 c 4.936,-7.494 15.01,-9.568 22.505,-4.631 7.493,4.93 9.577,15.01 4.636,22.502 -4.934,7.489 -15.016,9.569 -22.503,4.633 -7.5,-4.935 -9.573,-15.01 -4.638,-22.504 m 21.581,39.586 c 7.808,-2.039 15.798,2.637 17.843,10.453 2.035,7.815 -2.642,15.805 -10.451,17.844 -7.82,2.04 -15.805,-2.637 -17.85,-10.451 -2.041,-7.811 2.642,-15.805 10.458,-17.846 m -9.41,39.477 c 6.457,3.335 8.982,11.279 5.634,17.737 -3.336,6.456 -11.28,8.98 -17.731,5.634 -6.451,-3.336 -8.988,-11.28 -5.64,-17.732 3.335,-6.458 11.279,-8.987 17.737,-5.639 m -30.066,20.734 c 2.31,6.119 -0.788,12.953 -6.907,15.258 -6.119,2.305 -12.953,-0.789 -15.258,-6.908 -2.311,-6.125 0.789,-12.959 6.907,-15.258 6.119,-2.311 12.953,0.783 15.258,6.908 M 256.252,578.919 c -13.19,10.538 -32.432,8.396 -42.973,-4.788 -10.543,-13.196 -8.396,-32.432 4.795,-42.974 13.184,-10.542 32.42,-8.401 42.968,4.783 10.536,13.196 8.395,32.432 -4.79,42.979 M 240.656,495.52 c -15.178,-0.885 -26.746,-13.912 -25.856,-29.075 0.885,-15.173 13.911,-26.746 29.079,-25.861 15.168,0.89 26.741,13.916 25.85,29.084 -0.889,15.168 -13.911,26.748 -29.073,25.852 m 39.785,-65.169 c -9.607,-9.725 -9.505,-25.411 0.22,-35.023 9.725,-9.601 25.411,-9.499 35.023,0.225 9.606,9.737 9.511,25.412 -0.22,35.024 -9.731,9.607 -25.41,9.51 -35.023,-0.226 m 65.861,-19.618 c -0.57,-12.295 8.935,-22.73 21.229,-23.293 12.296,-0.564 22.731,8.941 23.293,21.236 0.57,12.294 -8.935,22.724 -21.235,23.293 -12.294,0.569 -22.725,-8.942 -23.287,-21.236 m 55.865,26.532 c 7.026,-8.57 19.664,-9.815 28.229,-2.789 8.558,7.026 9.809,19.664 2.789,28.234 -7.027,8.559 -19.665,9.81 -28.229,2.789 -8.569,-7.026 -9.815,-19.67 -2.789,-28.234 m 21.382,51.391 c 9.861,-1.498 19.067,5.28 20.56,15.135 1.499,9.86 -5.279,19.066 -15.139,20.56 -9.849,1.498 -19.056,-5.28 -20.555,-15.135 -1.499,-9.854 5.274,-19.06 15.134,-20.56 m -16.644,47.251 c 7.494,4.936 9.568,15.01 4.632,22.504 -4.931,7.493 -15.01,9.573 -22.505,4.637 -7.486,-4.936 -9.566,-15.016 -4.63,-22.509 4.936,-7.495 15.01,-9.568 22.503,-4.632 m -39.587,21.579 c 2.039,7.81 -2.637,15.8 -10.452,17.845 -7.814,2.034 -15.804,-2.643 -17.844,-10.452 -2.041,-7.82 2.637,-15.804 10.452,-17.85 7.809,-2.039 15.804,2.643 17.844,10.457 m -39.474,-9.409 c -3.336,6.458 -11.281,8.982 -17.738,5.634 -6.458,-3.336 -8.981,-11.28 -5.634,-17.731 3.336,-6.451 11.28,-8.987 17.731,-5.64 6.458,3.335 8.986,11.28 5.641,17.737 m -20.735,-30.065 c -6.119,2.31 -12.954,-0.789 -15.258,-6.908 -2.305,-6.119 0.788,-12.954 6.908,-15.258 6.124,-2.31 12.959,0.789 15.258,6.908 2.31,6.119 -0.785,12.954 -6.908,15.258 M 76.266,260.553 c -10.536,-13.19 -8.395,-32.432 4.79,-42.975 13.195,-10.541 32.431,-8.394 42.973,4.795 10.542,13.186 8.401,32.422 -4.783,42.969 -13.196,10.537 -32.432,8.394 -42.98,-4.789 m 83.401,-15.596 c 0.885,-15.18 13.912,-26.748 29.074,-25.857 15.173,0.884 26.746,13.912 25.862,29.08 -0.89,15.168 -13.917,26.74 -29.085,25.849 -15.168,-0.888 -26.747,-13.91 -25.851,-29.072 m 65.167,39.783 c 9.726,-9.605 25.412,-9.504 35.024,0.221 9.602,9.725 9.5,25.411 -0.225,35.023 -9.736,9.607 -25.411,9.511 -35.023,-0.218 -9.607,-9.732 -9.512,-25.412 0.224,-35.026 m 19.62,65.862 c 12.295,-0.569 22.73,8.936 23.293,21.231 0.563,12.293 -8.943,22.729 -21.237,23.292 -12.294,0.569 -22.723,-8.936 -23.292,-21.236 -0.57,-12.295 8.942,-22.723 21.236,-23.287 m -26.533,55.865 c 8.57,7.026 9.815,19.664 2.789,28.223 -7.025,8.564 -19.664,9.815 -28.234,2.795 -8.559,-7.027 -9.809,-19.664 -2.788,-28.229 7.025,-8.57 19.669,-9.815 28.233,-2.789 m -51.392,21.383 c 1.5,9.86 -5.279,19.067 -15.133,20.56 -9.86,1.499 -19.067,-5.28 -20.561,-15.14 -1.498,-9.849 5.28,-19.055 15.135,-20.555 9.855,-1.498 19.061,5.274 20.559,15.135 M 119.28,411.206 c -4.936,7.493 -15.01,9.567 -22.504,4.631 -7.494,-4.93 -9.579,-15.01 -4.637,-22.504 4.935,-7.488 15.015,-9.567 22.504,-4.631 7.499,4.936 9.572,15.01 4.637,22.504 M 97.7,371.618 c -7.81,2.04 -15.799,-2.637 -17.845,-10.451 -2.033,-7.815 2.643,-15.805 10.452,-17.845 7.821,-2.039 15.805,2.637 17.85,10.446 2.04,7.815 -2.642,15.811 -10.457,17.85 m 9.409,-39.474 c -6.457,-3.335 -8.981,-11.281 -5.634,-17.738 3.335,-6.457 11.28,-8.98 17.732,-5.635 6.451,3.336 8.986,11.281 5.64,17.733 -3.336,6.451 -11.281,8.986 -17.738,5.64 m 30.066,-20.736 c -2.311,-6.118 0.788,-12.953 6.907,-15.258 6.12,-2.304 12.954,0.789 15.258,6.909 2.31,6.125 -0.788,12.959 -6.907,15.257 -6.12,2.305 -12.954,-0.783 -15.258,-6.908 M 394.634,80.572 c 13.189,-10.537 32.431,-8.394 42.973,4.783 10.542,13.198 8.396,32.432 -4.794,42.975 -13.185,10.535 -32.421,8.395 -42.969,-4.791 -10.535,-13.189 -8.395,-32.426 4.79,-42.967 m 15.596,83.395 c 15.179,0.885 26.747,13.912 25.856,29.074 -0.885,15.174 -13.911,26.746 -29.078,25.861 -15.169,-0.888 -26.742,-13.916 -25.852,-29.084 0.89,-15.168 13.911,-26.746 29.074,-25.851 m -39.786,65.168 c 9.607,9.724 9.506,25.412 -0.219,35.023 -9.724,9.602 -25.411,9.5 -35.023,-0.224 -9.606,-9.737 -9.511,-25.413 0.22,-35.024 9.73,-9.607 25.411,-9.512 35.022,0.225 m -65.86,19.619 c 0.57,12.295 -8.936,22.73 -21.23,23.293 -12.294,0.562 -22.729,-8.942 -23.293,-21.236 -0.569,-12.293 8.936,-22.723 21.237,-23.293 12.294,-0.569 22.723,8.943 23.286,21.236 m -55.865,-26.533 c -7.026,8.57 -19.664,9.816 -28.229,2.789 -8.558,-7.026 -9.809,-19.662 -2.788,-28.233 7.026,-8.558 19.664,-9.81 28.228,-2.789 8.57,7.026 9.815,19.67 2.789,28.233 M 227.336,170.83 c -9.86,1.498 -19.066,-5.279 -20.56,-15.139 -1.499,-9.849 5.28,-19.056 15.141,-20.554 9.848,-1.5 19.055,5.273 20.553,15.133 1.5,9.861 -5.274,19.062 -15.134,20.56 m 16.644,-47.25 c -7.493,-4.935 -9.567,-15.012 -4.631,-22.504 4.93,-7.5 15.01,-9.572 22.504,-4.638 7.488,4.937 9.567,15.011 4.631,22.505 -4.935,7.498 -15.009,9.573 -22.504,4.637 M 283.567,102 c -2.039,-7.814 2.638,-15.805 10.453,-17.846 7.815,-2.039 15.804,2.645 17.844,10.459 2.039,7.815 -2.636,15.799 -10.452,17.846 -7.809,2.033 -15.805,-2.645 -17.845,-10.459 m 39.475,9.408 c 3.336,-6.455 11.281,-8.974 17.737,-5.638 6.457,3.341 8.982,11.279 5.636,17.736 -3.336,6.457 -11.28,8.982 -17.732,5.646 -6.456,-3.345 -8.987,-11.285 -5.641,-17.744 m 13.827,45.324 c 2.3,6.12 9.134,9.219 15.259,6.909 6.118,-2.305 9.212,-9.133 6.907,-15.258 -2.305,-6.119 -9.139,-9.213 -15.258,-6.908 -6.124,2.304 -9.217,9.138 -6.908,15.257"
                   style="fill:url(#radialGradient887);stroke:none"
                   id="path889"
                   inkscape:connector-curvature="0" /></g></g></g></g></g></g></g></svg>